# xmcd CD database file
#
# Track frame offsets:
#	150
#	19376
#	40251
#	66541
#	83381
#	100504
#	118092
#	139781
#	166914
#	186851
#	209629
#
# Disc length: 3050 seconds
#
# Revision: 0
# Processed by: cddbd v1.5.2PL0 Copyright (c) Steve Scherf et al.
# Submitted via: Feurio! 1.68 - http://www.feurio.com
#
DISCID=970be80b
DTITLE=Feuerzeugx - Woas kust de Waald
DYEAR=1900
DGENRE=
TTITLE0=??? - Woas kust de Waald
TTITLE1=??? - Flexibel muss man sein
TTITLE2=??? - echte Menschen
TTITLE3=??? - Zu vill Frieher, zu vill Heemte
TTITLE4=??? - Der Kapitän
TTITLE5=??? - Nimm keine aus der Stadt
TTITLE6=??? - Meine Garage ist ein Saustall
TTITLE7=??? - S' schwoarze Bicksl
TTITLE8=??? - Wär' mein Opa bei Facebook gewe
TTITLE9=??? - Seht sie euch an
TTITLE10=??? - Bleib ok no a boar Minutn
EXTD=
EXTT0=
EXTT1=
EXTT2=
EXTT3=
EXTT4=
EXTT5=
EXTT6=
EXTT7=
EXTT8=
EXTT9=
EXTT10=
PLAYORDER=
